<?xml version="1.0"?>
<svg xmlns:rdf="http://www.w3.org/1999/02/22-rdf-syntax-ns#" xmlns="http://www.w3.org/2000/svg" xmlns:cc="http://web.resource.org/cc/" xmlns:dc="http://purl.org/dc/elements/1.1/" xmlns:svg="http://www.w3.org/2000/svg" id="svg3427" viewBox="0 0 40 40" version="1.0">
  <g id="layer1">
    <path id="path3395" d="m20 0c-4.731 0-8.571 4.032-8.571 9 0.041 3.126 1.654 5.768 3.333 8.281-1.871-1.416-3.951-2.272-6.1906-2.281-4.7314 0-8.5714 4.032-8.5714 9s3.84 9 8.5714 9c3.8326-0.064 6.8986-2.746 9.9106-5-0.539 6.733-1.635 10.514-8.006 12h19.048c-6.371-1.486-7.467-5.267-8.006-12 2.977 2.552 6.1 4.717 9.911 5 4.731 0 8.571-4.032 8.571-9s-3.84-9-8.571-9c-2.297 0-4.281 1.057-6.191 2.281 1.9-2.487 3.151-5.17 3.333-8.281 0-4.968-3.84-9-8.571-9z"/>
  </g>
  <metadata>
    <rdf:RDF>
      <cc:Work>
        <dc:format>image/svg+xml</dc:format>
        <dc:type rdf:resource="http://purl.org/dc/dcmitype/StillImage"/>
        <cc:license rdf:resource="http://creativecommons.org/licenses/publicdomain/"/>
        <dc:publisher>
          <cc:Agent rdf:about="http://openclipart.org/">
            <dc:title>Openclipart</dc:title>
          </cc:Agent>
        </dc:publisher>
        <dc:title>card_trefle</dc:title>
        <dc:date>2007-08-22T07:17:52</dc:date>
        <dc:description>card, card, clip art, clipart, game, game, image, media, png, public domain, shape, shape, sign, sign, svg, </dc:description>
        <dc:source>http://openclipart.org/detail/4934/card_trefle-by-jean_victor_balin</dc:source>
        <dc:creator>
          <cc:Agent>
            <dc:title>jean_victor_balin</dc:title>
          </cc:Agent>
        </dc:creator>
        <dc:subject>
          <rdf:Bag>
            <rdf:li>card</rdf:li>
            <rdf:li>clip art</rdf:li>
            <rdf:li>clipart</rdf:li>
            <rdf:li>game</rdf:li>
            <rdf:li>image</rdf:li>
            <rdf:li>media</rdf:li>
            <rdf:li>png</rdf:li>
            <rdf:li>public domain</rdf:li>
            <rdf:li>shape</rdf:li>
            <rdf:li>sign</rdf:li>
            <rdf:li>svg</rdf:li>
          </rdf:Bag>
        </dc:subject>
      </cc:Work>
      <cc:License rdf:about="http://creativecommons.org/licenses/publicdomain/">
        <cc:permits rdf:resource="http://creativecommons.org/ns#Reproduction"/>
        <cc:permits rdf:resource="http://creativecommons.org/ns#Distribution"/>
        <cc:permits rdf:resource="http://creativecommons.org/ns#DerivativeWorks"/>
      </cc:License>
    </rdf:RDF>
  </metadata>
</svg>
